<svg width="62" height="62" viewBox="0 0 62 62" fill="none" xmlns="http://www.w3.org/2000/svg">
<path d="M61.6043 30.9999C61.6043 48.0114 47.8137 61.802 30.8021 61.802C13.7906 61.802 0 48.0114 0 30.9999C0 13.9883 13.7906 0.197754 30.8021 0.197754C47.8137 0.197754 61.6043 13.9883 61.6043 30.9999Z" fill="#000AF9"/>
<path d="M32.3164 16.879C32.5964 16.866 32.8301 16.8796 33.0799 17.0229C33.3608 17.184 33.5733 17.4396 33.654 17.7572C33.735 18.0765 33.699 18.4136 33.5237 18.6954C33.3312 19.0048 33.0288 19.1666 32.6845 19.2519C32.4086 19.2683 32.1902 19.2571 31.9395 19.1208C31.6515 18.9641 31.449 18.7108 31.359 18.3954C31.2689 18.0793 31.3112 17.7468 31.4777 17.4623C31.6664 17.1401 31.9644 16.9689 32.3164 16.879Z" fill="white"/>
<path d="M8.27924 28.4545C8.5655 28.4371 8.85134 28.4416 9.11312 28.5756C9.43561 28.7406 9.70898 29.0511 9.8114 29.3999C9.91037 29.7371 9.88817 30.1285 9.71776 30.4394C9.49682 30.8426 9.16344 31.0306 8.7397 31.1575C8.45573 31.19 8.15368 31.1633 7.89604 31.0314C7.57307 30.8662 7.31667 30.5725 7.21233 30.2233C7.10294 29.8573 7.12879 29.4845 7.31361 29.147C7.52815 28.7552 7.8627 28.5674 8.27924 28.4545Z" fill="white"/>
<path d="M54.4295 37.9896C54.6702 37.9603 54.891 37.9798 55.1133 38.0809C55.4215 38.2211 55.6624 38.4965 55.7672 38.8186C55.8634 39.1145 55.8191 39.4704 55.6716 39.7399C55.4935 40.0653 55.2114 40.2444 54.8651 40.3475C54.5843 40.3707 54.3575 40.3726 54.096 40.2435C53.8333 40.1138 53.5855 39.8397 53.4935 39.5607C53.3927 39.255 53.4247 38.8796 53.5827 38.5989C53.7733 38.2602 54.0656 38.0904 54.4295 37.9896Z" fill="white"/>
<path d="M22.2657 9.38734L22.35 9.40082C22.4882 9.64004 22.5852 9.90485 22.6901 10.1614C22.6184 10.2373 22.493 10.275 22.3998 10.318L21.701 10.6355L23.1441 14.0478L22.1926 14.4927L20.7333 11.0868L19.7513 11.5628L19.4002 10.7326C20.3483 10.268 21.3089 9.83195 22.2657 9.38734Z" fill="white"/>
<path d="M38.759 10.0681L41.5233 11.5027L41.1429 12.2558L40.2256 11.7795L38.6753 14.833C38.5314 14.8046 37.8833 14.47 37.7794 14.3707L39.3205 11.3256L38.3791 10.8317L38.759 10.0681Z" fill="white"/>
<path d="M15.973 43.4229L18.3792 45.7297L17.7637 46.3729L16.9379 45.5843L14.3938 48.1878L13.6142 47.446L16.1435 44.8527L15.3499 44.0776L15.973 43.4229Z" fill="white"/>
<path d="M20.9042 47.5071C21.2404 47.6596 21.6275 47.7545 21.9448 47.9377L22.1101 49.9966C22.3006 49.8362 23.5627 48.5544 23.6642 48.5442L24.5056 48.8814L22.7758 50.5154C22.265 51.0021 21.7471 51.6384 21.0476 51.8859C20.6374 52.031 20.1071 51.7986 19.7406 51.6447L20.0475 50.878C20.2562 50.9842 20.5338 51.097 20.7745 51.0902C20.9707 51.0847 21.0843 50.9851 21.215 50.8626C21.2434 50.5107 21.1642 50.1191 21.1276 49.7674L20.9042 47.5071Z" fill="white"/>
<path d="M11.8891 39.3425L11.9603 39.3394C12.4751 39.3275 12.9428 39.4502 13.3185 39.8198C13.6691 40.1648 13.9652 40.7554 13.9543 41.2578C13.9403 41.8985 13.5168 42.2833 13.0977 42.6982L12.5089 41.7863L12.6081 41.7167C12.7973 41.5662 13.026 41.3644 13.046 41.1079C13.0606 40.9211 12.9968 40.7132 12.8672 40.5766C12.7406 40.4432 12.5796 40.3573 12.3947 40.3517C11.791 40.3334 11.047 40.8032 10.6239 41.206L10.5978 41.2375C10.4549 41.4149 10.3797 41.5992 10.4114 41.8316C10.436 42.013 10.5754 42.2297 10.7237 42.3324C11 42.5237 11.3044 42.4451 11.6084 42.3821L12.0352 43.2852L11.4928 43.4043C11.0499 43.4699 10.6417 43.3608 10.2869 43.0865C9.88306 42.7742 9.60752 42.2649 9.54347 41.758C9.4799 41.2547 9.64436 40.7766 9.95285 40.3832C10.4124 39.7972 11.1649 39.4328 11.8891 39.3425Z" fill="white"/>
<path d="M28.4511 8.37981C28.5273 8.37088 28.6025 8.3531 28.6757 8.38254L28.7634 9.17045C28.6055 9.22789 28.3961 9.2316 28.2272 9.25692L26.6813 9.45741L26.7986 10.3547L28.4696 10.1364L28.5757 10.9492L26.9288 11.1753L27.0553 12.1255L29.1372 11.8529L29.1731 11.9376L29.2705 12.7031L26.1242 13.1312L25.5266 8.77606L28.4511 8.37981Z" fill="white"/>
<path d="M33.2917 8.70663L34.4291 8.91537L35.0566 13.4716L33.9977 13.2988L33.9093 12.3503L33.4538 12.2856L32.5853 12.1324L32.5611 12.1265C32.3961 12.353 32.2742 12.7205 32.1623 12.9828L31.3127 12.8602L33.2917 8.70663Z" fill="white"/>
<path d="M33.5252 9.7277L33.5465 9.74725L33.6952 11.4295L33.2443 11.3419L33.0144 11.2873L33.5252 9.7277Z" fill="#000AF9"/>
<path d="M44.4166 13.4716C44.9155 13.9691 45.5014 14.4752 45.9346 15.0373C46.1882 15.3661 46.3254 15.7076 46.2795 16.1422C46.2371 16.5448 45.9946 16.917 45.694 17.154C45.4185 17.3711 45.0414 17.465 44.7071 17.4017L44.657 17.3915C44.1548 17.2931 43.7014 16.6742 43.328 16.3146L42.2466 17.5559L41.5233 16.8113L44.4166 13.4716Z" fill="white"/>
<path d="M44.5621 14.84L44.6226 14.833L45.0091 15.1849C45.1376 15.3156 45.2706 15.4636 45.2672 15.6602C45.2643 15.8221 45.2143 15.9425 45.0966 16.0514C44.9661 16.1721 44.8359 16.2057 44.6641 16.1913C44.3491 16.0527 44.1412 15.8114 43.9058 15.5645L44.5621 14.84Z" fill="#000AF9"/>
<path d="M35.9972 48.5372C36.0602 48.5247 36.0622 48.5218 36.1187 48.5508L37.0987 52.8548L36.119 53.0883L35.5162 50.356C35.3864 50.8365 35.2251 51.2961 35.0392 51.7575L34.7259 52.5251C34.671 52.6613 34.5943 52.822 34.5721 52.9666C34.5514 53.1017 34.6004 53.2914 34.6194 53.4282C34.3673 53.5297 34.0208 53.5659 33.7492 53.6319C33.7143 53.6349 33.6803 53.633 33.6451 53.6319L32.6741 49.3L33.623 49.0733L34.2504 51.8516C34.3653 51.4238 34.4935 51.007 34.653 50.5932L35.0387 49.65C35.095 49.5121 35.1859 49.3405 35.2046 49.1933C35.2216 49.0594 35.154 48.8622 35.124 48.7293L35.9972 48.5372Z" fill="white"/>
<path d="M41.5046 45.8053L41.5646 45.8057L43.9058 49.3117L43.0558 49.8505L42.136 48.4601C42.0824 48.4643 42.0201 48.5163 41.9748 48.544L41.4054 48.9134L41.5995 49.8845L41.7483 50.656C41.5033 50.8811 41.1451 51.0592 40.8654 51.251L40.6018 49.2101C40.4446 49.2159 40.2864 49.2145 40.1306 49.1912C39.8061 49.1426 39.5762 48.9847 39.3884 48.7289C39.1861 48.4535 39.095 48.0606 39.1633 47.7274C39.1962 47.5666 39.2678 47.4163 39.3748 47.2897C39.6227 46.9962 39.9585 46.8051 40.2789 46.5972L41.5046 45.8053Z" fill="white"/>
<path d="M41.2211 46.8264L41.8637 47.8938C41.5347 48.1324 41.2025 48.3834 40.8244 48.5282L40.7527 48.5268C40.5838 48.5182 40.4333 48.4455 40.3224 48.3099C40.1974 48.1572 40.1399 47.9654 40.1696 47.764C40.2195 47.4261 40.9571 47.0202 41.2211 46.8264Z" fill="#000AF9"/>
<path d="M27.6446 49.5492L29.2603 49.6683L29.8769 53.2519L30.2916 53.2768L30.14 54.9949L29.4649 54.9511L29.4387 54.0223L28.6322 53.9554L26.7028 53.7917L26.5193 54.691L25.867 54.6468L26.0096 52.9274L26.4386 52.9511L27.6446 49.5492Z" fill="white"/>
<path d="M28.1065 50.2315L28.1838 50.23C28.2955 50.3573 28.5509 52.6102 28.5898 52.9528L27.821 52.8975L27.2284 52.851C27.3526 52.3762 27.525 51.917 27.6723 51.4492L27.9143 50.6693C27.9621 50.5182 27.9978 50.3514 28.1065 50.2315Z" fill="#000AF9"/>
<path d="M16.879 15.516C16.9407 15.5133 16.9296 15.5064 16.9885 15.5445L19.4002 28.9495C19.2265 29.0056 19.0305 29.029 18.8511 29.0653L17.9022 29.258L15.4898 29.7395L15.2509 24.4636L15.1424 22.1609L15.081 20.8904C15.0771 20.843 15.0799 20.7377 15.0516 20.7048L11.5086 28.1337L7.62437 24.0452L7.05908 27.0075C6.67142 28.3455 6.19758 29.5624 5.30975 30.6471C4.95021 31.0863 4.54672 31.4677 4.13161 31.8508L4.10207 31.8236C4.06621 31.7818 3.74191 31.2231 3.74392 31.2034C3.74486 31.1941 3.89234 31.0519 3.90875 31.035C4.14217 30.7941 4.36696 30.5413 4.56182 30.2665C5.21629 29.3434 5.62481 28.2707 5.9113 27.1767C6.30172 25.6857 6.41634 24.1403 6.59665 22.6133L7.35711 15.9711L12.1274 23.5397L15.2061 15.5828L16.879 15.516Z" fill="white"/>
<path d="M17.1803 22.6697C17.2369 22.6578 17.2067 22.6593 17.2708 22.6684C17.4603 24.2219 17.3137 25.8849 17.0942 27.4262L16.4847 27.3837C16.4123 27.382 16.3978 27.3938 16.337 27.3468C16.384 26.837 16.5699 26.303 16.6551 25.7928C16.8219 24.7949 16.8465 23.8232 16.8587 22.8124L17.1803 22.6697Z" fill="#000AF9"/>
<path d="M8.06156 20.2787L11.2317 25.1877L10.8891 25.9922L10.858 26.0542L10.8214 26.0647L7.92575 22.6299C7.89968 22.5924 7.84856 22.5306 7.83676 22.4888C7.8037 22.3717 7.87573 22.051 7.88978 21.9161L8.06156 20.2787Z" fill="#000AF9"/>
<path d="M30.9254 20.6191L33.9206 20.6917C33.9558 21.0824 34.0577 21.4807 34.1362 21.8651L34.5651 23.9359L35.7584 29.8238L45.9409 28.7432L45.7077 21.1653L50.054 21.2643L49.197 28.5979C50.1192 28.4747 51.0896 28.303 51.947 27.9298C52.4493 27.7112 53.0095 27.3577 53.2114 26.8211L53.2214 26.7931C53.474 26.7678 53.7723 26.8252 54.0271 26.8467C53.9387 27.4461 53.8149 27.9622 53.451 28.4608C52.5165 29.7414 50.7006 30.0339 49.2397 30.2668L49.3578 31.3618C49.5419 32.8438 49.8398 34.3242 50.2099 35.7703C50.6015 37.2996 51.1137 38.9212 51.9826 40.2501C52.1813 40.554 52.375 40.8673 52.6672 41.0911C53.2315 41.5232 53.9631 41.5887 54.6475 41.4897C55.7135 41.3355 56.7288 40.7421 57.4721 39.9777C57.7413 39.7009 57.9706 39.3897 58.2007 39.0807C58.1041 39.771 57.8665 40.4024 57.4794 40.9823C56.8924 41.8615 55.9562 42.4661 54.919 42.669C54.6111 42.7292 54.2888 42.7398 53.9757 42.7417C53.6242 42.7439 53.2694 42.7397 52.9225 42.6766C52.2818 42.5601 51.628 42.2493 51.0932 41.8848C49.2517 40.6294 48.1792 38.3994 47.4207 36.3717C47.086 35.477 46.7869 34.5741 46.5577 33.6462L45.969 30.6236L39.5536 31.1873C39.6872 31.2749 39.8861 31.3107 40.036 31.3778C40.7195 31.6839 41.2946 32.3292 41.5564 33.0287C41.6699 33.3316 41.6929 33.6368 41.6851 33.9579C41.6657 34.756 41.4312 35.3688 40.8297 35.9142C40.685 36.0455 40.5264 36.1615 40.3753 36.2853C40.3113 36.3377 40.2312 36.3875 40.1964 36.4644L40.2427 36.5331L43.5341 39.9088C44.0484 40.4025 44.8307 40.8547 45.5673 40.8319C46.0936 40.8156 46.436 40.521 46.7761 40.1603C46.8801 40.187 46.9823 40.2435 47.0799 40.2879C46.9798 40.5205 46.8652 40.7385 46.7092 40.9394C46.4012 41.3363 45.953 41.5949 45.4534 41.6534C43.7498 41.8527 42.3979 40.5292 41.2073 39.5201L38.5589 37.2555C38.4517 37.2557 38.3281 37.3064 38.224 37.3361L37.5507 37.5166L37.9911 41.9738L36.4094 42.3066L34.8942 35.2603L27.3624 34.2828L24.8808 39.1978C24.5634 38.8591 24.1631 38.5602 23.8125 38.2539L21.1598 35.9303L23.1779 32.7508L6.55771 34.3189L6.46675 32.9385L10.436 32.5216L21.9871 31.2907L23.3053 31.1526C23.6163 31.1221 23.9411 31.1045 24.2457 31.0339C24.3016 31.0209 24.3493 30.9323 24.383 30.8836L25.3226 29.4081L27.0673 26.6789L30.9254 20.6191Z" fill="white"/>
<path d="M25.7595 32.5485L26.2073 32.5315C25.9944 33.0256 25.6915 33.4948 25.4557 33.982C25.0431 34.8348 24.7287 35.7162 24.4563 36.6157C24.3491 36.6021 24.2082 36.5007 24.1118 36.449L23.4845 36.1145C23.8691 35.2104 24.3144 34.3452 24.8079 33.4888C24.9635 33.2187 25.1161 32.9093 25.3204 32.6695C25.4259 32.5457 25.6008 32.5646 25.7595 32.5485Z" fill="#000AF9"/>
<path d="M48.2338 23.0015L48.6708 23.3323C48.4664 23.8586 48.2568 24.3814 48.1007 24.924C47.8302 25.8641 47.6985 26.7937 47.6472 27.7665L47.1445 27.6482L46.6287 27.5465C46.7029 26.9938 46.8547 26.4305 47.0118 25.8954C47.3028 24.9037 47.6924 23.8908 48.2338 23.0015Z" fill="#000AF9"/>
<path d="M33.7934 31.8677L34.0284 31.8508C34.123 31.96 34.3519 33.3565 34.3759 33.5526L28.7736 33.2496L27.9091 33.2013C28.0188 32.9284 28.1258 32.6763 28.287 32.433C28.4673 32.3761 28.6867 32.3789 28.8744 32.3603L29.9903 32.2507L33.7934 31.8677Z" fill="#000AF9"/>
<path d="M36.0776 31.5104C36.5813 31.525 37.0927 31.5302 37.594 31.5802C37.8541 31.6063 38.1388 31.6382 38.3849 31.731C38.4117 31.7411 38.4205 31.746 38.4368 31.7696C38.6656 32.1023 38.8266 32.5743 38.9969 32.943L39.6564 34.3958C39.8303 34.7745 40.0173 35.1466 40.1619 35.5375C39.9538 35.7818 39.6749 35.9565 39.4053 36.1276C38.7521 36.5318 37.9454 36.7474 37.2084 36.9561L36.0776 31.5104Z" fill="#000AF9"/>
<path d="M32.509 23.0036L32.5452 23.0015C32.6108 23.206 32.6314 23.4282 32.668 23.6396L33.6952 29.9941C33.6447 30.0277 33.5481 30.0214 33.4872 30.0269L32.9493 30.0789L30.072 30.3758L28.9302 30.4894L32.509 23.0036Z" fill="#000AF9"/>
</svg>
