<svg width="136" height="136" viewBox="0 0 136 136" fill="none" xmlns="http://www.w3.org/2000/svg">
<path fill-rule="evenodd" clip-rule="evenodd" d="M68 135.564C105.279 135.564 135.5 105.344 135.5 68.0645C135.5 30.7852 105.279 0.564453 68 0.564453C30.7208 0.564453 0.5 30.7852 0.5 68.0645C0.5 105.344 30.7208 135.564 68 135.564ZM66.0251 31.0896L43.7513 53.3634C42.3844 54.7303 42.3844 56.9464 43.7513 58.3132C45.1181 59.68 47.3342 59.68 48.701 58.3132L65 42.0142V101.564C65 103.497 66.567 105.064 68.5 105.064C70.433 105.064 72 103.497 72 101.564V42.0142L88.299 58.3132C89.6658 59.68 91.8819 59.68 93.2487 58.3132C94.6156 56.9464 94.6156 54.7303 93.2487 53.3634L70.9749 31.0896C69.608 29.7227 67.392 29.7227 66.0251 31.0896Z" fill="white"/>
</svg>
